<svg style="fill:#645FCE" class="SVGInline-svg" xmlns="http://www.w3.org/2000/svg" viewBox="0 0 26 26"><path d="M7.188 0c-.348.07-.633.32-.75.656 0 0-1.313 3.684-1.313 9.094 0 3.516 3.137 6.684 6.875 7.188v5.968C10.293 24.395 7 25 7 25c-.55 0-1 .453-1 1h14c0-.55-.45-1-1-1 0 0-3.293-.605-5-2.094v-5.968c1.723-.247 3.27-1.133 4.469-2.282 1.422-1.36 2.406-3.101 2.406-4.906 0-5.406-1.281-9.094-1.281-9.094A1 1 0 0018.656 0H7.188zm.968 2h9.719c.102.328.281 1.047.469 2H9.969s-.938 2.406-.938 6.375c0 2.023 1.836 4.05 4.063 4.594a.972.972 0 00-.281.031h-.032c-2.922-.148-5.656-2.887-5.656-5.25 0-4.363.781-6.965 1.031-7.75z"/></svg>