<svg width="16" height="26" fill="none" xmlns="http://www.w3.org/2000/svg"><path fill-rule="evenodd" clip-rule="evenodd" d="M13.6871 0c.348.07.633.32.75.656 0 0 1.313 3.684 1.313 9.094 0 3.516-3.137 6.684-6.87498 7.188v5.968C10.5821 24.395 13.8751 25 13.8751 25c.55 0 1 .453 1 1H.875122c0-.55.449998-1 .999998-1 0 0 3.293-.605 5-2.094v-5.968c-1.723-.247-3.27-1.133-4.469-2.282C.984122 13.296.00012207 11.555.00012207 9.75.00012207 4.344 1.28112.656 1.28112.656c.07042-.192202.19812-.358166.36586-.475479C1.81472.0632088 2.01443.00019852 2.21912 0H13.6871zm-.968 2H2.96729c-.25.785-1.031 3.387-1.031 7.75 0 2.363 2.734 5.102 5.656 5.25h.032c.07161-.0187.14506-.0292.21892-.0313.07385.0021.1473.0126.21891.0313h.032c2.92198-.148 5.65598-2.887 5.65598-5.25 0-4.363-.781-6.965-1.031-7.75z" fill="#645FCE"/></svg>